<?xml version="1.0" encoding="UTF-8"?>
<svg xmlns="http://www.w3.org/2000/svg" xmlns:xlink="http://www.w3.org/1999/xlink" width="30pt" height="30pt" viewBox="0 0 30 30" version="1.1">
<g id="surface1">
<path style=" stroke:none;fill-rule:nonzero;fill:rgb(100%,100%,100%);fill-opacity:1;" d="M 29.851562 15 C 29.851562 23.203125 23.203125 29.851562 15 29.851562 C 6.796875 29.851562 0.148438 23.203125 0.148438 15 C 0.148438 6.796875 6.796875 0.148438 15 0.148438 C 23.203125 0.148438 29.851562 6.796875 29.851562 15 Z M 29.851562 15 "/>
<path style=" stroke:none;fill-rule:nonzero;fill:rgb(100%,100%,100%);fill-opacity:1;" d="M 10.820312 16.628906 C 10.824219 16.632812 10.828125 16.636719 10.828125 16.640625 C 10.828125 16.640625 10.824219 16.640625 10.820312 16.644531 C 10.820312 16.640625 10.816406 16.636719 10.8125 16.632812 C 10.816406 16.632812 10.820312 16.632812 10.820312 16.628906 Z M 10.820312 16.628906 "/>
<path style=" stroke:none;fill-rule:nonzero;fill:rgb(100%,100%,100%);fill-opacity:1;" d="M 19.1875 16.632812 C 19.183594 16.636719 19.183594 16.640625 19.179688 16.644531 C 19.175781 16.640625 19.171875 16.640625 19.167969 16.636719 C 19.171875 16.632812 19.175781 16.628906 19.179688 16.625 C 19.183594 16.628906 19.183594 16.628906 19.1875 16.632812 Z M 19.1875 16.632812 "/>
<path style=" stroke:none;fill-rule:nonzero;fill:#3A32D0;fill-opacity:1;" d="M 19.828125 21.566406 L 10.171875 21.566406 C 9.78125 21.566406 9.46875 21.25 9.46875 20.863281 L 9.46875 13.789062 L 20.53125 13.789062 L 20.53125 20.863281 C 20.53125 21.25 20.21875 21.566406 19.828125 21.566406 Z M 19.828125 21.566406 "/>
<path style=" stroke:none;fill-rule:nonzero;fill:#3A32D0;fill-opacity:1;" d="M 21.9375 14.796875 C 22.234375 15.089844 22.023438 15.59375 21.605469 15.589844 L 15.050781 15.546875 L 8.476562 15.5 C 8.0625 15.5 7.859375 15 8.148438 14.707031 L 14.671875 8.1875 C 14.851562 8.007812 15.148438 8.007812 15.328125 8.1875 Z M 21.9375 14.796875 "/>
<path style=" stroke:none;fill-rule:nonzero;fill:rgb(100%,100%,100%);fill-opacity:1;" d="M 16.097656 16.535156 L 13.902344 16.535156 C 13.355469 16.535156 12.910156 16.976562 12.910156 17.523438 L 12.910156 21.59375 L 17.089844 21.59375 L 17.089844 17.523438 C 17.089844 16.976562 16.644531 16.535156 16.097656 16.535156 Z M 16.097656 16.535156 "/>
</g>
</svg>
