<?xml version="1.0" encoding="UTF-8"?>
<svg xmlns="http://www.w3.org/2000/svg" xmlns:xlink="http://www.w3.org/1999/xlink" width="38pt" height="38pt" viewBox="0 0 38 38" version="1.1">
<g id="surface1">
<path style=" stroke:none;fill-rule:nonzero;fill:rgb(100%,100%,100%);fill-opacity:1;" d="M 37.808594 19 C 37.808594 29.386719 29.386719 37.808594 19 37.808594 C 8.613281 37.808594 0.191406 29.386719 0.191406 19 C 0.191406 8.613281 8.613281 0.191406 19 0.191406 C 29.386719 0.191406 37.808594 8.613281 37.808594 19 Z M 37.808594 19 "/>
<path style=" stroke:none;fill-rule:nonzero;fill:rgb(100%,100%,100%);fill-opacity:1;" d="M 13.707031 21.066406 C 13.710938 21.066406 13.714844 21.070312 13.71875 21.074219 C 13.714844 21.078125 13.710938 21.078125 13.707031 21.082031 C 13.703125 21.078125 13.699219 21.074219 13.695312 21.070312 C 13.699219 21.070312 13.703125 21.066406 13.707031 21.066406 Z M 13.707031 21.066406 "/>
<path style=" stroke:none;fill-rule:nonzero;fill:rgb(100%,100%,100%);fill-opacity:1;" d="M 24.304688 21.066406 C 24.300781 21.070312 24.296875 21.078125 24.292969 21.082031 C 24.289062 21.078125 24.285156 21.078125 24.28125 21.074219 C 24.285156 21.070312 24.289062 21.066406 24.292969 21.058594 C 24.296875 21.0625 24.300781 21.066406 24.304688 21.066406 Z M 24.304688 21.066406 "/>
<path style=" stroke:none;fill-rule:nonzero;fill:rgb(0%,49.803922%,100%);fill-opacity:1;" d="M 25.117188 27.316406 L 12.882812 27.316406 C 12.390625 27.316406 11.992188 26.917969 11.992188 26.425781 L 11.992188 17.46875 L 26.007812 17.46875 L 26.007812 26.425781 C 26.007812 26.917969 25.609375 27.316406 25.117188 27.316406 Z M 25.117188 27.316406 "/>
<path style=" stroke:none;fill-rule:nonzero;fill:rgb(0%,49.803922%,100%);fill-opacity:1;" d="M 27.789062 18.742188 C 28.160156 19.117188 27.894531 19.75 27.367188 19.75 L 19.066406 19.691406 L 10.734375 19.636719 C 10.214844 19.632812 9.953125 19 10.324219 18.632812 L 18.582031 10.371094 C 18.8125 10.140625 19.1875 10.140625 19.417969 10.371094 Z M 27.789062 18.742188 "/>
<path style=" stroke:none;fill-rule:nonzero;fill:rgb(100%,100%,100%);fill-opacity:1;" d="M 20.394531 20.945312 L 17.605469 20.945312 C 16.914062 20.945312 16.355469 21.503906 16.355469 22.199219 L 16.355469 27.351562 L 21.644531 27.351562 L 21.644531 22.199219 C 21.644531 21.503906 21.085938 20.945312 20.394531 20.945312 Z M 20.394531 20.945312 "/>
</g>
</svg>
