<?xml version="1.0" encoding="UTF-8"?>
<svg xmlns="http://www.w3.org/2000/svg" xmlns:xlink="http://www.w3.org/1999/xlink" width="43pt" height="43pt" viewBox="0 0 43 43" version="1.1">
<g id="surface1">
<path style=" stroke:none;fill-rule:nonzero;fill:rgb(100%,100%,100%);fill-opacity:1;" d="M 42.785156 21.5 C 42.785156 33.253906 33.253906 42.785156 21.5 42.785156 C 9.746094 42.785156 0.214844 33.253906 0.214844 21.5 C 0.214844 9.746094 9.746094 0.214844 21.5 0.214844 C 33.253906 0.214844 42.785156 9.746094 42.785156 21.5 Z M 42.785156 21.5 "/>
<path style=" stroke:none;fill-rule:nonzero;fill:rgb(100%,100%,100%);fill-opacity:1;" d="M 15.511719 23.835938 C 15.515625 23.839844 15.519531 23.84375 15.523438 23.847656 C 15.519531 23.851562 15.515625 23.851562 15.511719 23.855469 C 15.507812 23.851562 15.503906 23.847656 15.5 23.84375 C 15.503906 23.839844 15.507812 23.839844 15.511719 23.835938 Z M 15.511719 23.835938 "/>
<path style=" stroke:none;fill-rule:nonzero;fill:rgb(100%,100%,100%);fill-opacity:1;" d="M 27.503906 23.839844 C 27.5 23.84375 27.492188 23.851562 27.488281 23.855469 C 27.484375 23.851562 27.480469 23.851562 27.472656 23.847656 C 27.480469 23.84375 27.484375 23.835938 27.488281 23.832031 C 27.492188 23.832031 27.5 23.835938 27.503906 23.839844 Z M 27.503906 23.839844 "/>
<path style=" stroke:none;fill-rule:nonzero;fill:rgb(0%,49.803922%,100%);fill-opacity:1;" d="M 28.421875 30.914062 L 14.578125 30.914062 C 14.023438 30.914062 13.570312 30.460938 13.570312 29.902344 L 13.570312 19.765625 L 29.429688 19.765625 L 29.429688 29.902344 C 29.429688 30.460938 28.976562 30.914062 28.421875 30.914062 Z M 28.421875 30.914062 "/>
<path style=" stroke:none;fill-rule:nonzero;fill:rgb(0%,49.803922%,100%);fill-opacity:1;" d="M 31.445312 21.210938 C 31.867188 21.632812 31.566406 22.351562 30.96875 22.347656 L 21.574219 22.28125 L 12.148438 22.21875 C 11.558594 22.214844 11.265625 21.5 11.683594 21.082031 L 21.027344 11.734375 C 21.289062 11.476562 21.710938 11.476562 21.972656 11.734375 Z M 31.445312 21.210938 "/>
<path style=" stroke:none;fill-rule:nonzero;fill:rgb(100%,100%,100%);fill-opacity:1;" d="M 23.074219 23.699219 L 19.925781 23.699219 C 19.140625 23.699219 18.507812 24.335938 18.507812 25.117188 L 18.507812 30.953125 L 24.492188 30.953125 L 24.492188 25.117188 C 24.492188 24.335938 23.859375 23.699219 23.074219 23.699219 Z M 23.074219 23.699219 "/>
</g>
</svg>
