<svg width="512" height="512" xmlns="http://www.w3.org/2000/svg">

 <g>
  <title>background</title>
  <rect fill="none" id="canvas_background" height="402" width="582" y="-1" x="-1"/>
 </g>
 <g>
  <title>Layer 1</title>
  <circle fill="#ffffff" id="svg_2" r="253.44" cy="256" cx="256"/>
  <path id="svg_3" fill="#FFFFFF" d="m184.690002,283.819c0.050003,0.049011 0.089005,0.098999 0.138992,0.14801c-0.049988,0.028992 -0.088989,0.048981 -0.138992,0.078979c-0.048996,-0.049988 -0.089005,-0.098999 -0.139008,-0.148987c0.050003,-0.018005 0.090012,-0.048004 0.139008,-0.078003z"/>
  <path id="svg_4" fill="#FFFFFF" d="m327.477997,283.859009c-0.049011,0.05899 -0.109009,0.128998 -0.167999,0.187988c-0.05899,-0.039978 -0.118988,-0.069977 -0.178009,-0.098999c0.059021,-0.05899 0.119019,-0.128998 0.178009,-0.187988c0.05899,0.028992 0.109009,0.069 0.167999,0.098999z"/>
  <path id="svg_5" fill="#007fff" d="m338.403992,368.078003l-164.807999,0c-6.637009,0 -12.016998,-5.380005 -12.016998,-12.016998l0,-120.695999l188.841019,0l0,120.695999c0.000977,6.636993 -5.380005,12.016998 -12.016022,12.016998z"/>
  <path id="svg_6" fill="#007fff" d="m374.421997,252.546005c5.013,5.013016 1.429016,13.582016 -5.660004,13.534012l-111.873993,-0.757019l-112.240997,-0.759003c-7.037003,-0.047974 -10.528,-8.557983 -5.552002,-13.533981l111.298996,-111.300018c3.096008,-3.095993 8.116013,-3.095993 11.21199,0l112.81601,112.81601z"/>
  <path fill="#ffffff" id="svg_7" d="m274.765015,282.200012l-37.529999,0c-9.322998,0 -16.87999,7.557007 -16.87999,16.880005l0,69.455994l71.288986,0l0,-69.456024c0.000977,-9.322998 -7.557007,-16.879974 -16.878998,-16.879974z"/>
 </g>
</svg>
